<?xml version="1.0" encoding="UTF-8"?>
<svg id="_레이어_1" data-name="레이어_1" xmlns="http://www.w3.org/2000/svg" version="1.1" viewBox="0 0 147.48 30.19">
  <!-- Generator: Adobe Illustrator 29.6.1, SVG Export Plug-In . SVG Version: 2.1.1 Build 9)  -->
  <defs>
    <style>
      .st0 {
        fill: #fff;
      }
    </style>
  </defs>
  <g>
    <path class="st0" d="M51.64,18.5V5.13h3.52v10.54h5.45v2.84h-8.98Z"/>
    <path class="st0" d="M65.64,5.13v13.38h-3.52V5.13h3.52Z"/>
    <path class="st0" d="M78.96,5.13v13.38h-2.95l-4.97-7.22h-.08v7.22h-3.52V5.13h3l4.89,7.2h.1v-7.2h3.52Z"/>
    <path class="st0" d="M80.75,18.5V5.13h9.56v2.84h-6.04v2.42h5.55v2.85h-5.55v2.42h6.02v2.84h-9.54Z"/>
    <path class="st0" d="M96.27,18.5V5.13h5.71c.98,0,1.84.2,2.59.58.75.39,1.32.94,1.73,1.65.41.71.61,1.53.61,2.47s-.21,1.76-.62,2.46c-.42.7-1.01,1.24-1.77,1.62-.77.38-1.65.57-2.67.57h-3.44v-2.74h2.74c.44,0,.81-.08,1.13-.23.32-.15.56-.37.72-.66s.25-.63.25-1.02-.08-.72-.25-1.01c-.16-.29-.4-.5-.72-.65-.32-.15-.69-.22-1.13-.22h-1.37v10.56h-3.52Z"/>
    <path class="st0" d="M108.3,18.5V5.13h3.52v10.54h5.45v2.84h-8.98Z"/>
    <path class="st0" d="M126.75,5.13h3.52v8.58c0,1-.24,1.88-.72,2.62s-1.16,1.32-2.02,1.73c-.87.41-1.87.61-3,.61s-2.14-.2-3.01-.61c-.87-.4-1.54-.98-2.01-1.73s-.72-1.62-.72-2.62V5.13h3.52v8.28c0,.42.09.8.28,1.14.19.34.45.6.79.79s.72.28,1.15.28.82-.09,1.15-.28c.34-.19.6-.45.79-.79.19-.34.28-.72.28-1.14V5.13Z"/>
    <path class="st0" d="M139.27,9.26c-.03-.3-.11-.56-.25-.77-.14-.21-.35-.37-.62-.48-.27-.11-.6-.17-1-.17-.38,0-.69.05-.94.14-.25.09-.44.22-.56.38s-.18.35-.19.56c-.02.34.12.61.42.81.3.21.77.38,1.42.52l1.12.24c.95.21,1.72.5,2.34.87.61.37,1.07.83,1.37,1.36s.45,1.15.45,1.85c0,.86-.22,1.6-.65,2.21-.43.61-1.05,1.08-1.85,1.4s-1.77.48-2.89.48-2.18-.17-3.04-.52c-.85-.35-1.51-.88-1.98-1.59-.46-.72-.7-1.61-.71-2.68h3.35c.02.41.13.76.31,1.04.19.28.45.5.79.64s.75.22,1.22.22c.39,0,.73-.05,1-.15.28-.1.49-.24.63-.42s.22-.39.22-.63c0-.22-.07-.41-.21-.57s-.35-.31-.65-.43c-.3-.13-.7-.24-1.19-.35l-1.35-.3c-1.22-.27-2.16-.7-2.82-1.32s-.98-1.42-.97-2.43c0-.83.22-1.57.67-2.21.45-.64,1.08-1.14,1.9-1.49s1.75-.53,2.79-.53,1.98.18,2.77.54c.79.36,1.4.86,1.82,1.52s.64,1.41.65,2.26h-3.37Z"/>
  </g>
  <g>
    <rect class="st0" x="39.41" y="5.13" width="6.83" height="20.65"/>
    <polygon class="st0" points="37.82 25.78 30.06 25.78 19.82 5.13 27.57 5.13 37.82 25.78"/>
    <polygon class="st0" points="13.75 18.95 13.75 5.13 6.92 5.13 6.92 18.95 6.92 25.78 13.75 25.78 24.08 25.78 24.08 18.95 13.75 18.95"/>
  </g>
  <g>
    <path class="st0" d="M51.58,25.86v-4.62h1.97c.34,0,.64.07.9.2.26.13.46.32.6.57.14.25.21.53.21.85s-.07.61-.22.85-.35.43-.61.56c-.26.13-.57.2-.92.2h-1.19v-.95h.95c.15,0,.28-.03.39-.08.11-.05.19-.13.25-.23.06-.1.08-.22.08-.35s-.03-.25-.08-.35-.14-.17-.25-.22c-.11-.05-.24-.08-.39-.08h-.47v3.65h-1.22Z"/>
    <path class="st0" d="M55.75,25.86v-3.47h1.17v.65h.04c.04-.16.1-.29.18-.39.08-.1.17-.18.27-.23.1-.05.22-.08.35-.08.05,0,.11,0,.16.01.05,0,.11.02.16.03v1.04c-.06-.02-.13-.03-.21-.04-.09-.01-.17-.02-.24-.02-.12,0-.23.03-.33.08-.1.06-.18.13-.23.24s-.08.22-.08.35v1.83h-1.21Z"/>
    <path class="st0" d="M60.03,25.93c-.37,0-.69-.07-.96-.22-.27-.15-.47-.36-.62-.63-.14-.27-.21-.58-.21-.94s.07-.67.21-.94c.14-.27.35-.48.62-.63.27-.15.59-.22.96-.22s.69.08.95.22c.27.15.47.36.62.63s.21.58.21.94-.07.67-.21.94c-.14.27-.35.48-.62.63-.27.15-.59.22-.95.22ZM60.03,25.03c.11,0,.21-.04.29-.11.08-.07.14-.18.19-.31.04-.14.07-.29.07-.48s-.02-.34-.07-.48c-.04-.14-.11-.24-.19-.31-.08-.07-.18-.11-.29-.11s-.22.04-.3.11c-.08.07-.15.18-.19.31-.04.13-.07.29-.07.48s.02.34.07.48c.04.13.11.24.19.31.08.07.18.11.3.11Z"/>
    <path class="st0" d="M62.33,25.86v-3.47h1.15v.65h.04c.07-.22.2-.39.37-.51s.38-.19.62-.19c.16,0,.31.03.45.09.13.06.25.14.33.25.09.11.14.23.17.37h.04c.04-.14.11-.26.21-.37.1-.11.22-.19.37-.25.14-.06.3-.09.47-.09.22,0,.41.05.58.14s.3.23.39.41c.09.18.14.38.14.62v2.34h-1.21v-2.04c0-.16-.04-.28-.12-.37s-.19-.13-.32-.13c-.09,0-.17.02-.23.06s-.12.1-.15.17c-.04.08-.05.17-.05.27v2.04h-1.16v-2.04c0-.1-.02-.19-.05-.26s-.09-.13-.15-.17-.14-.06-.23-.06-.17.02-.23.06c-.07.04-.12.1-.15.18-.03.08-.05.17-.05.27v2.03h-1.21Z"/>
    <path class="st0" d="M69.93,25.93c-.37,0-.69-.07-.96-.22-.27-.15-.47-.36-.62-.63-.14-.27-.21-.58-.21-.94s.07-.67.21-.94c.14-.27.35-.48.62-.63.27-.15.59-.22.96-.22s.69.08.95.22c.27.15.47.36.62.63s.21.58.21.94-.07.67-.21.94c-.14.27-.35.48-.62.63-.27.15-.59.22-.95.22ZM69.94,25.03c.11,0,.21-.04.29-.11.08-.07.14-.18.19-.31.04-.14.07-.29.07-.48s-.02-.34-.07-.48c-.04-.14-.11-.24-.19-.31-.08-.07-.18-.11-.29-.11s-.22.04-.3.11c-.08.07-.15.18-.19.31-.04.13-.07.29-.07.48s.02.34.07.48c.04.13.11.24.19.31.08.07.18.11.3.11Z"/>
    <path class="st0" d="M74.27,22.4v.88h-2.26v-.88h2.26ZM72.46,21.57h1.21v3.19c0,.05,0,.1.03.13.02.03.04.06.08.08.04.02.08.03.14.03.04,0,.09,0,.16,0s.13,0,.2,0c0,0,.02,0,.03,0,0,0,.01,0,.02,0v.9c-.17.03-.36.04-.58.04-.28,0-.52-.04-.71-.11-.19-.07-.33-.19-.43-.34-.1-.15-.14-.35-.14-.59v-3.31Z"/>
    <path class="st0" d="M74.79,25.86v-3.47h1.21v3.47h-1.21ZM75.39,22.02c-.11,0-.21-.03-.3-.08-.09-.05-.16-.12-.22-.21-.05-.08-.08-.18-.08-.28s.03-.19.08-.28c.05-.08.13-.15.22-.2.09-.05.19-.08.3-.08s.21.03.3.08c.09.05.17.12.22.2.05.08.08.18.08.28s-.03.19-.08.28c-.05.09-.13.15-.22.21-.09.05-.19.08-.3.08Z"/>
    <path class="st0" d="M78.3,25.93c-.37,0-.69-.07-.96-.22-.27-.15-.47-.36-.62-.63-.14-.27-.21-.58-.21-.94s.07-.67.21-.94c.14-.27.35-.48.62-.63.27-.15.59-.22.96-.22s.69.08.95.22c.27.15.47.36.62.63s.21.58.21.94-.07.67-.21.94c-.14.27-.35.48-.62.63-.27.15-.59.22-.95.22ZM78.3,25.03c.11,0,.21-.04.29-.11.08-.07.14-.18.19-.31.04-.14.07-.29.07-.48s-.02-.34-.07-.48c-.04-.14-.11-.24-.19-.31-.08-.07-.18-.11-.29-.11s-.22.04-.3.11c-.08.07-.15.18-.19.31-.04.13-.07.29-.07.48s.02.34.07.48c.04.13.11.24.19.31.08.07.18.11.3.11Z"/>
    <path class="st0" d="M81.81,23.91v1.96h-1.21v-3.47h1.15v.65h.04c.05-.14.13-.27.23-.37.1-.1.23-.18.37-.24.14-.06.3-.08.47-.08.24,0,.45.06.63.17.18.11.32.26.42.46s.15.42.15.67v2.21h-1.21v-1.96c0-.12-.02-.22-.06-.31-.04-.08-.1-.15-.18-.2s-.17-.07-.28-.07-.2.02-.28.07c-.08.04-.14.11-.18.2-.04.09-.07.19-.07.31Z"/>
    <path class="st0" d="M86.66,24.44s-.03,0-.06,0c-.03,0-.06,0-.1,0-.08,0-.17,0-.26.02s-.17.01-.22.02c-.11.01-.19.05-.26.11s-.1.15-.1.24c0,.07.02.12.05.17.03.05.08.08.14.11.06.02.12.04.2.04.1,0,.2-.02.29-.06.09-.04.16-.1.21-.18s.08-.17.08-.27v-1.14c0-.06-.03-.12-.06-.17s-.08-.08-.14-.11c-.06-.02-.13-.03-.21-.03-.08,0-.16.01-.22.04-.06.02-.11.06-.15.11-.04.05-.06.11-.07.18h-1.11c.02-.22.08-.41.21-.59.12-.18.3-.32.53-.42.23-.1.51-.16.84-.16s.59.05.83.15c.24.1.43.23.56.41s.2.37.2.59v2.37h-1.13v-.49h-.03c-.07.13-.15.23-.25.31-.1.08-.21.14-.33.18-.13.04-.27.06-.42.06-.22,0-.42-.04-.59-.11-.17-.08-.3-.19-.4-.34-.1-.15-.14-.34-.14-.56,0-.36.12-.63.35-.8.23-.18.54-.28.93-.3.09,0,.2,0,.34-.02.14,0,.27-.01.37-.02.04,0,.07,0,.09,0s.04,0,.05,0v.68Z"/>
    <path class="st0" d="M89.63,21.24v4.62h-1.21v-4.62h1.21Z"/>
    <path class="st0" d="M91.7,25.86v-3.47h1.21v3.47h-1.21ZM92.3,22.02c-.11,0-.21-.03-.3-.08-.09-.05-.16-.12-.22-.21-.05-.08-.08-.18-.08-.28s.03-.19.08-.28c.05-.08.13-.15.22-.2.09-.05.19-.08.3-.08s.21.03.3.08c.09.05.17.12.22.2.05.08.08.18.08.28s-.03.19-.08.28c-.05.09-.13.15-.22.21-.09.05-.19.08-.3.08Z"/>
    <path class="st0" d="M95.59,22.4v.88h-2.26v-.88h2.26ZM93.78,21.57h1.21v3.19c0,.05,0,.1.03.13.02.03.04.06.08.08.04.02.08.03.14.03.04,0,.09,0,.16,0s.13,0,.2,0c0,0,.02,0,.03,0,0,0,.01,0,.02,0v.9c-.17.03-.36.04-.58.04-.28,0-.52-.04-.71-.11-.19-.07-.33-.19-.43-.34-.1-.15-.14-.35-.14-.59v-3.31Z"/>
    <path class="st0" d="M97.72,25.93c-.37,0-.68-.07-.95-.21s-.47-.35-.61-.62c-.14-.27-.21-.59-.21-.96s.07-.67.22-.94c.14-.27.35-.48.61-.63s.57-.22.92-.22.64.07.9.21.46.35.6.61c.14.27.21.58.21.95v.28h-3.08v-.67h1.96c0-.1-.03-.2-.08-.28-.05-.08-.12-.14-.2-.19s-.18-.07-.29-.07-.21.02-.29.07c-.09.05-.16.11-.21.19s-.08.17-.08.28v.71c0,.12.02.23.07.32.05.09.12.16.21.22.09.05.2.08.33.08.09,0,.17-.01.24-.04.07-.02.14-.06.19-.11.05-.05.09-.1.12-.17h1.11c-.04.24-.13.44-.28.62-.15.18-.34.31-.58.41s-.51.14-.83.14Z"/>
    <path class="st0" d="M99.92,25.86v-3.47h1.15v.65h.04c.07-.22.2-.39.37-.51s.38-.19.62-.19c.16,0,.31.03.45.09.13.06.25.14.33.25.09.11.14.23.17.37h.04c.04-.14.11-.26.21-.37.1-.11.22-.19.37-.25.14-.06.3-.09.47-.09.22,0,.41.05.58.14s.3.23.39.41c.09.18.14.38.14.62v2.34h-1.21v-2.04c0-.16-.04-.28-.12-.37s-.19-.13-.32-.13c-.09,0-.17.02-.23.06s-.12.1-.15.17c-.04.08-.05.17-.05.27v2.04h-1.16v-2.04c0-.1-.02-.19-.05-.26s-.09-.13-.15-.17-.14-.06-.23-.06-.17.02-.23.06c-.07.04-.12.1-.15.18-.03.08-.05.17-.05.27v2.03h-1.21Z"/>
    <path class="st0" d="M108.77,25.94c-.32,0-.6-.06-.84-.17-.24-.12-.43-.27-.56-.47-.13-.2-.19-.42-.19-.66,0-.17.03-.32.1-.45.06-.13.15-.26.27-.37.12-.11.26-.23.44-.35l1.03-.64c.07-.04.12-.09.16-.13.04-.05.07-.1.09-.14.02-.05.03-.09.03-.14,0-.05-.01-.1-.04-.14-.03-.04-.06-.08-.12-.11s-.12-.04-.19-.04-.14.01-.19.04c-.05.03-.1.07-.12.12-.03.05-.04.11-.04.18,0,.08.02.15.06.23.04.08.09.16.15.24s.15.19.27.33l.11.13,2.24,2.47h-1.21l-1.87-1.99s-.02-.03-.04-.04c-.01-.01-.02-.03-.04-.04-.12-.13-.22-.26-.32-.39-.09-.13-.17-.28-.24-.45-.07-.16-.1-.34-.1-.51,0-.23.06-.45.17-.64.11-.19.27-.35.47-.46.2-.11.44-.17.7-.17.25,0,.47.05.66.16.19.1.33.24.44.42s.15.37.15.59c0,.14-.02.28-.07.41-.05.13-.12.25-.21.37-.09.11-.2.22-.34.31l-.96.68c-.06.04-.11.08-.15.13-.04.04-.07.09-.1.15-.02.05-.04.11-.04.18,0,.09.02.17.06.23.04.07.1.12.18.15.08.04.17.05.28.05.21,0,.41-.07.62-.2.2-.13.37-.31.5-.54.13-.23.19-.49.19-.77h.96c0,.28-.03.54-.09.78-.06.24-.15.47-.27.67-.12.2-.28.36-.47.5-.03.02-.06.03-.09.04-.03.01-.06.03-.09.04-.03.01-.06.03-.09.04-.03.01-.06.03-.09.04-.17.11-.36.2-.56.25-.2.05-.41.08-.61.08Z"/>
    <path class="st0" d="M116.16,22.96c-.01-.14-.05-.27-.12-.38s-.16-.19-.28-.25-.26-.09-.42-.09c-.21,0-.4.05-.54.15-.15.1-.26.25-.34.45-.08.2-.12.43-.12.71s.04.53.12.72.19.34.34.44c.15.1.33.15.54.15.16,0,.29-.03.41-.08s.21-.13.28-.23.12-.22.14-.35h1.23c-.03.29-.12.56-.29.82-.17.26-.4.48-.71.65s-.67.25-1.09.25-.81-.09-1.14-.28c-.33-.19-.6-.46-.79-.81-.19-.36-.29-.78-.29-1.28s.1-.93.29-1.28c.2-.36.46-.63.8-.81.34-.18.71-.28,1.13-.28.38,0,.73.07,1.03.21.3.14.54.34.73.61.18.27.29.59.33.96h-1.23Z"/>
    <path class="st0" d="M119.64,25.93c-.37,0-.69-.07-.96-.22-.27-.15-.47-.36-.62-.63-.14-.27-.21-.58-.21-.94s.07-.67.21-.94c.14-.27.35-.48.62-.63.27-.15.59-.22.96-.22s.69.08.95.22c.27.15.47.36.62.63s.21.58.21.94-.07.67-.21.94c-.14.27-.35.48-.62.63-.27.15-.59.22-.95.22ZM119.65,25.03c.11,0,.21-.04.29-.11.08-.07.14-.18.19-.31.04-.14.07-.29.07-.48s-.02-.34-.07-.48c-.04-.14-.11-.24-.19-.31-.08-.07-.18-.11-.29-.11s-.22.04-.3.11c-.08.07-.15.18-.19.31-.04.13-.07.29-.07.48s.02.34.07.48c.04.13.11.24.19.31.08.07.18.11.3.11Z"/>
    <path class="st0" d="M123.96,23.51c-.01-.11-.06-.19-.15-.25-.09-.06-.2-.1-.33-.1-.08,0-.15,0-.21.03s-.11.05-.15.08-.05.08-.05.13c0,.06.02.11.08.16.05.04.14.08.27.1l.69.13c.35.07.62.17.79.33.17.15.26.36.26.61,0,.24-.07.45-.21.63-.14.18-.34.32-.59.42-.25.1-.53.15-.85.15-.34,0-.64-.05-.89-.14s-.45-.23-.59-.41c-.14-.18-.22-.38-.25-.62h1.2c.02.11.07.2.17.26.09.06.21.09.36.09.08,0,.15,0,.22-.03.06-.02.11-.05.15-.08s.05-.08.06-.13c0-.07-.04-.12-.1-.17-.06-.04-.17-.08-.31-.1l-.61-.11c-.35-.06-.61-.18-.79-.35-.18-.17-.26-.39-.26-.67,0-.23.06-.44.19-.61.13-.17.31-.3.55-.39.24-.09.52-.13.84-.13s.61.05.85.14c.24.09.43.23.56.4s.2.38.22.62h-1.11Z"/>
    <path class="st0" d="M125.65,25.86v-3.47h1.15v.65h.04c.07-.22.2-.39.37-.51s.38-.19.62-.19c.16,0,.31.03.45.09.13.06.25.14.33.25.09.11.14.23.17.37h.04c.04-.14.11-.26.21-.37.1-.11.22-.19.37-.25.14-.06.3-.09.47-.09.22,0,.41.05.58.14s.3.23.39.41c.09.18.14.38.14.62v2.34h-1.21v-2.04c0-.16-.04-.28-.12-.37s-.19-.13-.32-.13c-.09,0-.17.02-.23.06s-.12.1-.15.17c-.04.08-.05.17-.05.27v2.04h-1.16v-2.04c0-.1-.02-.19-.05-.26s-.09-.13-.15-.17-.14-.06-.23-.06-.17.02-.23.06c-.07.04-.12.1-.15.18-.03.08-.05.17-.05.27v2.03h-1.21Z"/>
    <path class="st0" d="M133.25,25.93c-.37,0-.68-.07-.95-.21s-.47-.35-.61-.62c-.14-.27-.21-.59-.21-.96s.07-.67.22-.94c.14-.27.35-.48.61-.63s.57-.22.92-.22.64.07.9.21.46.35.6.61c.14.27.21.58.21.95v.28h-3.08v-.67h1.96c0-.1-.03-.2-.08-.28-.05-.08-.12-.14-.2-.19s-.18-.07-.29-.07-.21.02-.29.07c-.09.05-.16.11-.21.19s-.08.17-.08.28v.71c0,.12.02.23.07.32.05.09.12.16.21.22.09.05.2.08.33.08.09,0,.17-.01.24-.04.07-.02.14-.06.19-.11.05-.05.09-.1.12-.17h1.11c-.04.24-.13.44-.28.62-.15.18-.34.31-.58.41s-.51.14-.83.14Z"/>
    <path class="st0" d="M137.49,22.4v.88h-2.26v-.88h2.26ZM135.68,21.57h1.21v3.19c0,.05,0,.1.03.13.02.03.04.06.08.08.04.02.08.03.14.03.04,0,.09,0,.16,0s.13,0,.2,0c0,0,.02,0,.03,0,0,0,.01,0,.02,0v.9c-.17.03-.36.04-.58.04-.28,0-.52-.04-.71-.11-.19-.07-.33-.19-.43-.34-.1-.15-.14-.35-.14-.59v-3.31Z"/>
    <path class="st0" d="M138.01,25.86v-3.47h1.21v3.47h-1.21ZM138.61,22.02c-.11,0-.21-.03-.3-.08-.09-.05-.16-.12-.22-.21-.05-.08-.08-.18-.08-.28s.03-.19.08-.28c.05-.08.13-.15.22-.2.09-.05.19-.08.3-.08s.21.03.3.08c.09.05.17.12.22.2.05.08.08.18.08.28s-.03.19-.08.28c-.05.09-.13.15-.22.21-.09.05-.19.08-.3.08Z"/>
    <path class="st0" d="M141.52,25.93c-.37,0-.69-.07-.96-.22-.27-.15-.47-.36-.62-.63-.14-.27-.21-.58-.21-.94s.07-.67.21-.94c.14-.27.35-.48.62-.63.27-.15.59-.22.95-.22.33,0,.62.06.87.18.25.12.44.29.58.51.13.22.2.48.21.77h-1.12c-.01-.12-.04-.22-.08-.3s-.11-.15-.18-.19c-.07-.04-.16-.07-.25-.07-.11,0-.21.03-.3.1-.09.07-.15.16-.2.29-.05.13-.07.29-.07.48s.02.35.07.48c.05.13.11.23.2.29.09.07.19.1.3.1.1,0,.18-.02.25-.07.07-.04.13-.11.18-.19.05-.08.07-.18.08-.3h1.12c0,.3-.08.56-.21.78s-.33.4-.57.52-.54.18-.87.18Z"/>
  </g>
</svg>